<svg
   xmlns="http://www.w3.org/2000/svg"
   viewBox="0 0 270.93333 270.93334">
   <path
      style="fill:#ffaa2e"
      d="m 451.03125,416.52344 -163.38281,163.38281 -0.002,0.004 c 0.18651,0.22533 60.75434,4.59179 134.59571,9.70507 73.84135,5.11325 134.37024,9.31912 134.50781,9.3418 0.84766,0.14753 -1.83935,3.47641 -10.70508,12.76563 L 718.18945,438.81836 C 717.75102,438.43989 657.50316,433.4956 584.25,427.82617 503.09069,421.54478 451.70678,417.18444 451.03125,416.52344 Z"
      transform="scale(0.26458333)" />
   <path
      style="fill:#ffd731"
      d="M 563.625,68.876953 397.87305,234.6875 232.11914,400.5 259.71289,490 c 15.17663,49.22498 27.74707,89.6849 27.93359,89.91016 l 0.002,-0.004 163.38281,-163.38281 c -0.004,-0.004 -0.0312,-0.0116 -0.0312,-0.0156 0,-0.55234 39.67628,-40.68178 88.16992,-89.17773 L 627.33984,239.1543 595.48242,154.01562 Z M 634,151.03906 V 152 h 0.48633 z M 451.71289,416.68164 c 0.18285,0.0301 0.51418,0.0719 0.77149,0.10742 -0.25716,-0.0354 -0.58787,-0.0773 -0.77149,-0.10742 z m 1.79297,0.24414 c 1.08251,0.13098 2.97961,0.32111 4.75391,0.50195 -1.79098,-0.18235 -3.66204,-0.36999 -4.75391,-0.50195 z m 6.94726,0.73242 c 3.02736,0.2952 6.76398,0.64012 11.16602,1.03321 -4.40885,-0.39356 -8.12875,-0.73733 -11.16602,-1.03321 z m 11.16602,1.03321 c 2.87451,0.25668 6.41552,0.55947 9.84766,0.85547 -3.40299,-0.2935 -6.99209,-0.60057 -9.84766,-0.85547 z m 57.34375,4.78515 c 16.33361,1.31031 34.83812,2.76695 55.28711,4.34961 -20.42473,-1.58079 -38.96529,-3.04022 -55.28711,-4.34961 z m 149.5625,11.83008 c 12.13671,0.99603 21.99709,1.82631 28.85156,2.43164 -6.85473,-0.60528 -16.71218,-1.43551 -28.85156,-2.43164 z m 28.85156,2.43164 c 6.85447,0.60534 10.7029,0.98546 10.8125,1.08008 -0.10958,-0.0946 -3.96084,-0.47507 -10.8125,-1.08008 z m 10.8125,1.08008 -172.14453,172.9043 c -11.7964,12.35986 -34.85074,35.58114 -78.17187,78.90429 l -89.12696,89.13086 30.75586,82.3711 c 16.91626,45.30406 31.21178,83.65832 31.76563,85.23242 0.99757,2.83517 2.57852,1.29034 168.7539,-164.88281 l 167.74805,-167.7461 -29.43945,-87.61719 c -16.19188,-48.18873 -29.75224,-87.92232 -30.13477,-88.29687 -1.8e-4,-1.8e-4 -0.006,1.8e-4 -0.006,0 z M 379.21484,860 380,862.93164 V 860 Z"
      transform="scale(0.26458333)" />
   <path
      d="M 27.25208,27.516666 V 100.54166 H 39.952079 V 40.216666 h 60.589581 v -12.7 H 27.25208 m 140.49374,0 v 12.7 h 59.53125 v 60.324994 h 12.96458 V 27.516666 H 167.74582 M 26.987497,167.48125 c 1.424516,7.67371 0.264583,16.53487 0.264583,24.34166 v 48.68333 h 73.28958 V 227.54166 H 39.952079 V 167.48125 H 26.987497 m 200.289573,0 v 60.06041 h -59.53125 v 12.96458 h 72.49583 v -73.02499 z"
   />
</svg>
